# Blender v2.76 (sub 0) OBJ File: 'diebox.blend'
# www.blender.org
v 15.000000 0.000000 -14.999999
v 15.000000 0.000000 15.000000
v -15.000002 0.000000 14.999997
v -14.999994 0.000000 -15.000006
v 15.000008 6.000000 -14.999992
v 14.999990 6.000000 15.000009
v -15.000006 6.000000 14.999994
v -14.999999 6.000000 -15.000000
v 15.000000 0.000000 0.000001
v -14.999998 0.000000 -0.000004
v 15.000000 0.000000 7.500000
v -15.000000 0.000000 7.499996
v -14.999996 0.000000 -7.500004
v 15.000000 0.000000 -7.499999
v 0.000003 0.000000 -15.000002
v 0.000000 0.000000 14.999998
v 0.000000 0.000000 7.499998
v 0.000002 0.000000 -7.500002
v 7.500000 0.000000 -0.000000
v 7.500000 0.000000 7.499999
v 7.500001 0.000000 -7.500000
v 7.500002 0.000000 -15.000000
v 7.500000 0.000000 14.999999
v -7.499996 0.000000 -15.000004
v -7.500001 0.000000 14.999998
v -7.499999 0.000000 -0.000003
v -7.500000 0.000000 7.499997
v -7.499997 0.000000 -7.500004
v 15.000000 0.000000 11.250000
v -11.249995 0.000000 -15.000004
v -11.250002 0.000000 14.999998
v -14.999995 0.000000 -11.250006
v 15.000000 0.000000 -3.749999
v -14.999999 0.000000 3.749996
v 11.250000 0.000000 0.000000
v 15.000000 0.000000 3.750000
v -15.000000 0.000000 11.249996
v 11.250000 0.000000 7.500000
v -14.999997 0.000000 -3.750005
v 15.000000 0.000000 -11.249999
v 11.250000 0.000000 -7.500000
v 3.750002 0.000000 -15.000000
v 3.750000 0.000000 14.999998
v -3.749999 0.000000 -0.000002
v -3.750000 0.000000 7.499998
v -3.749998 0.000000 -7.500003
v 0.000002 0.000000 -11.250002
v 0.000000 0.000000 3.749998
v 0.000001 0.000000 -3.750002
v 0.000000 0.000000 11.249998
v 3.750000 0.000000 -0.000001
v 3.750000 0.000000 7.499999
v 3.750001 0.000000 -7.500001
v 11.250001 0.000000 -15.000000
v 11.250000 0.000000 15.000000
v 7.500000 0.000000 11.249999
v 7.500000 0.000000 -3.750000
v 7.500000 0.000000 3.749999
v 7.500002 0.000000 -11.250000
v -3.749997 0.000000 -15.000004
v -3.750000 0.000000 14.999998
v -11.249998 0.000000 -0.000004
v -11.250000 0.000000 7.499997
v -11.249996 0.000000 -7.500004
v -7.499996 0.000000 -11.250004
v -7.499999 0.000000 3.749997
v -7.499998 0.000000 -3.750004
v -7.500000 0.000000 11.249998
v -3.750000 0.000000 11.249998
v -3.749998 0.000000 -3.750003
v -3.750000 0.000000 3.749998
v -3.749997 0.000000 -11.250004
v 11.250000 0.000000 -11.250000
v 11.250000 0.000000 3.750000
v 11.250000 0.000000 -3.750000
v 11.250000 0.000000 11.250000
v 3.750000 0.000000 11.249998
v 3.750001 0.000000 -3.750001
v 3.750000 0.000000 3.749999
v 3.750002 0.000000 -11.250000
v -11.249996 0.000000 -11.250004
v -11.249999 0.000000 3.749997
v -11.249997 0.000000 -3.750004
v -11.250001 0.000000 11.249998
v 7.500000 3.000000 7.499999
v 7.500001 3.000000 -7.500000
v -7.500000 3.000000 7.499997
v -7.499997 3.000000 -7.500004
v 11.250000 3.000000 7.500000
v 11.250000 3.000000 -7.500000
v 7.500000 3.000000 11.249999
v 7.500002 3.000000 -11.250000
v -11.250000 3.000000 7.499997
v -11.249996 3.000000 -7.500004
v -7.499996 3.000000 -11.250004
v -7.500000 3.000000 11.249998
v 11.250000 3.000000 -11.250000
v 11.250000 3.000000 11.250000
v -11.249996 3.000000 -11.250004
v -11.250001 3.000000 11.249998
v 0.000000 3.000000 7.499998
v 0.000002 3.000000 -7.500002
v 7.500000 3.000000 -0.000000
v -7.499999 3.000000 -0.000003
v 11.250000 3.000000 0.000000
v -3.749998 3.000000 -7.500003
v 0.000002 3.000000 -11.250002
v 0.000000 3.000000 11.249998
v 3.750000 3.000000 7.499999
v 7.500000 3.000000 -3.750000
v -11.249998 3.000000 -0.000004
v -7.499999 3.000000 3.749997
v -3.749997 3.000000 -11.250004
v 11.250000 3.000000 -3.750000
v 3.750000 3.000000 11.249998
v -11.249999 3.000000 3.749997
v 0.000001 3.000000 -0.000002
v -3.749999 3.000000 -0.000002
v 0.000000 3.000000 3.749998
v 0.000001 3.000000 -3.750002
v 3.750000 3.000000 -0.000001
v -3.749998 3.000000 -3.750003
v -3.750000 3.000000 3.749998
v 3.750001 3.000000 -3.750001
v 3.750000 3.000000 3.749999
vt 0.461756 0.770259
vt 0.461756 0.739509
vt 0.492506 0.739509
vt 0.338754 0.739509
vt 0.369505 0.739509
vt 0.369505 0.770259
vt 0.400255 0.739509
vt 0.431006 0.739509
vt 0.431006 0.770259
vt 0.277253 0.739509
vt 0.308004 0.739509
vt 0.308004 0.770259
vt 0.277253 0.893261
vt 0.277253 0.862511
vt 0.308004 0.862511
vt 0.400255 0.862511
vt 0.431006 0.862511
vt 0.431006 0.893261
vt 0.525255 0.616507
vt 0.525255 0.247502
vt 0.556006 0.247502
vt 0.461756 0.862511
vt 0.492506 0.862511
vt 0.492506 0.893261
vt 0.461756 0.954762
vt 0.461756 0.924012
vt 0.492506 0.924012
vt 0.905251 0.616507
vt 0.905251 0.247502
vt 0.936001 0.247502
vt 0.400255 0.954762
vt 0.400255 0.924012
vt 0.431006 0.924012
vt 0.905251 0.986512
vt 0.905251 0.617506
vt 0.936001 0.617506
vt 0.277253 0.831760
vt 0.277253 0.801010
vt 0.308004 0.801010
vt 0.400255 0.801010
vt 0.431006 0.801010
vt 0.431006 0.831760
vt 0.338754 0.801010
vt 0.369505 0.801010
vt 0.369505 0.831760
vt 0.461756 0.801010
vt 0.492506 0.801010
vt 0.492506 0.831760
vt 0.461756 0.831760
vt 0.587755 0.616507
vt 0.587755 0.247502
vt 0.618506 0.247502
vt 0.308004 0.831760
vt 0.338754 0.831760
vt 0.338754 0.862511
vt 0.400255 0.831760
vt 0.557005 0.616507
vt 0.557005 0.247502
vt 0.369505 0.954762
vt 0.000500 0.954762
vt 0.000500 0.924012
vt 0.833759 0.000500
vt 0.864509 0.000500
vt 0.864509 0.031250
vt 0.895259 0.000500
vt 0.895259 0.031250
vt 0.988510 0.000500
vt 0.988510 0.031250
vt 0.957759 0.031250
vt 0.773257 0.094749
vt 0.804007 0.094749
vt 0.804007 0.125499
vt 0.772258 0.000500
vt 0.772258 0.031250
vt 0.741507 0.031250
vt 0.957759 0.123501
vt 0.988510 0.123501
vt 0.988510 0.154252
vt 0.957759 0.092751
vt 0.988510 0.092751
vt 0.369505 0.924012
vt 0.988510 0.062000
vt 0.957759 0.062000
vt 0.308004 0.924012
vt 0.338754 0.924012
vt 0.338754 0.954762
vt 0.988510 0.185002
vt 0.988510 0.215753
vt 0.957759 0.215753
vt 0.957759 0.185002
vt 0.589753 0.986512
vt 0.589754 0.617506
vt 0.620504 0.617506
vt 0.461756 0.893261
vt 0.999500 0.616507
vt 0.999500 0.247502
vt 0.968750 0.247502
vt 0.338754 0.893261
vt 0.369505 0.893261
vt 0.308004 0.893261
vt 0.400255 0.893261
vt 0.494505 0.616507
vt 0.494505 0.247502
vt 0.803008 0.000500
vt 0.803008 0.031250
vt 0.833759 0.031250
vt 0.809003 0.986512
vt 0.809003 0.617506
vt 0.778253 0.617506
vt 0.926010 0.000500
vt 0.926010 0.031250
vt 0.956760 0.000500
vt 0.956760 0.031250
vt 0.400255 0.770259
vt 0.937000 0.986512
vt 0.937000 0.617506
vt 0.967751 0.617506
vt 0.338754 0.770259
vt 0.492506 0.770259
vt 0.619505 0.616507
vt 0.619505 0.247502
vt 0.650255 0.247502
vt 0.773257 0.158248
vt 0.804007 0.158248
vt 0.804007 0.188999
vt 0.773257 0.157249
vt 0.773257 0.126499
vt 0.804007 0.126499
vt 0.834758 0.032249
vt 0.834758 0.063000
vt 0.804007 0.063000
vt 0.772258 0.094749
vt 0.772258 0.125500
vt 0.741507 0.125499
vt 0.745504 0.986512
vt 0.745504 0.617506
vt 0.714754 0.617506
vt 0.651254 0.616507
vt 0.651254 0.247502
vt 0.682005 0.247502
vt 0.526254 0.986512
vt 0.526254 0.617506
vt 0.557005 0.617506
vt 0.840753 0.986512
vt 0.840753 0.617506
vt 0.810002 0.617506
vt 0.525255 0.986512
vt 0.525255 0.617506
vt 0.494505 0.617506
vt 0.777253 0.616507
vt 0.777254 0.247502
vt 0.746503 0.247502
vt 0.557005 0.986512
vt 0.494505 0.986512
vt 0.873501 0.616507
vt 0.873501 0.247502
vt 0.904252 0.247502
vt 0.682005 0.616507
vt 0.650255 0.616507
vt 0.746503 0.986512
vt 0.746503 0.617506
vt 0.777254 0.617506
vt 0.773257 0.189998
vt 0.804007 0.189998
vt 0.804007 0.220748
vt 0.741507 0.189998
vt 0.772258 0.189998
vt 0.772258 0.220748
vt 0.741507 0.126499
vt 0.772258 0.126499
vt 0.772258 0.157249
vt 0.772258 0.158248
vt 0.772258 0.188999
vt 0.741507 0.188999
vt 0.904252 0.986512
vt 0.904252 0.617506
vt 0.873501 0.617506
vt 0.684003 0.986512
vt 0.684003 0.617506
vt 0.653253 0.617506
vt 0.558004 0.986512
vt 0.558004 0.617506
vt 0.588754 0.617506
vt 0.714753 0.616507
vt 0.714754 0.247502
vt 0.745504 0.247502
vt 0.809003 0.616507
vt 0.809003 0.247502
vt 0.778253 0.247502
vt 0.841752 0.986512
vt 0.841752 0.617506
vt 0.872502 0.617506
vt 0.621503 0.986512
vt 0.621503 0.617506
vt 0.652254 0.617506
vt 0.000500 0.770259
vt 0.000500 0.801010
vt 0.967751 0.616507
vt 0.967751 0.247502
vt 0.937000 0.247502
vt 0.841752 0.616507
vt 0.841752 0.247502
vt 0.872502 0.247502
vt 0.713754 0.616507
vt 0.713754 0.247502
vt 0.683004 0.247502
vt 0.840753 0.616507
vt 0.840753 0.247502
vt 0.810002 0.247502
vt 0.741507 0.093750
vt 0.741507 0.063000
vt 0.772258 0.063000
vt 0.741507 0.032249
vt 0.772258 0.032249
vt 0.803008 0.032249
vt 0.803008 0.063000
vt 0.803008 0.093750
vt 0.618506 0.616507
vt 0.556006 0.616507
vt 0.494505 0.246503
vt 0.740508 0.246503
vt 0.740508 0.000500
vt 0.000500 0.000500
vt 0.123501 0.738510
vt 0.246503 0.000500
vt 0.247502 0.000500
vt 0.370504 0.738510
vt 0.493506 0.000500
vt 0.277253 0.770259
vt 0.492506 0.954762
vt 0.936001 0.616507
vt 0.431006 0.954762
vt 0.936001 0.986512
vt 0.957759 0.000500
vt 0.773257 0.125499
vt 0.741507 0.000500
vt 0.957759 0.154252
vt 0.308004 0.954762
vt 0.620504 0.986512
vt 0.968750 0.616507
vt 0.277253 0.924012
vt 0.778253 0.986512
vt 0.967751 0.986512
vt 0.773257 0.188999
vt 0.804007 0.157249
vt 0.804007 0.032249
vt 0.741507 0.094749
vt 0.714753 0.986512
vt 0.810002 0.986512
vt 0.746503 0.616507
vt 0.904252 0.616507
vt 0.777253 0.986512
vt 0.773257 0.220748
vt 0.741507 0.220748
vt 0.741507 0.157249
vt 0.741507 0.158248
vt 0.873501 0.986512
vt 0.653253 0.986512
vt 0.588754 0.986512
vt 0.745504 0.616507
vt 0.778253 0.616507
vt 0.872502 0.986512
vt 0.652253 0.986512
vt 0.937000 0.616507
vt 0.872502 0.616507
vt 0.683004 0.616507
vt 0.810002 0.616507
vt 0.772258 0.093750
vt 0.494505 0.000500
vt 0.185002 0.738510
vt 0.215753 0.738510
vt 0.246503 0.738510
vt 0.000500 0.738510
vt 0.031250 0.738510
vt 0.062001 0.738510
vt 0.092751 0.738510
vt 0.154252 0.738510
vt 0.432005 0.738510
vt 0.462755 0.738510
vt 0.493506 0.738510
vt 0.247502 0.738510
vt 0.278253 0.738510
vt 0.309003 0.738510
vt 0.339754 0.738510
vt 0.401254 0.738510
vn 0.000000 1.000000 0.000000
vn -0.000000 0.000000 1.000000
vn 1.000000 0.000000 0.000000
vn 0.000000 0.000000 -1.000000
vn -1.000000 0.000000 0.000000
vn 0.000000 -1.000000 0.000000
s off
f 84/1/1 37/2/1 3/3/1
f 39/4/1 10/5/1 62/6/1
f 34/7/1 12/8/1 63/9/1
f 32/10/1 13/11/1 64/12/1
f 80/13/1 47/14/1 18/15/1
f 48/16/1 17/17/1 52/18/1
f 48/19/2 119/20/2 123/21/2
f 50/22/1 16/23/1 43/24/1
f 76/25/1 56/26/1 23/27/1
f 66/28/2 112/29/2 116/30/2
f 74/31/1 58/32/1 20/33/1
f 65/34/3 95/35/3 88/36/3
f 72/37/1 65/38/1 28/39/1
f 66/40/1 27/41/1 45/42/1
f 67/43/1 26/44/1 44/45/1
f 68/46/1 25/47/1 61/48/1
f 69/49/1 61/48/1 16/23/1
f 45/42/1 69/49/1 50/22/1
f 45/42/1 27/41/1 68/46/1
f 51/50/3 121/51/3 125/52/3
f 46/53/1 70/54/1 49/55/1
f 28/39/1 67/43/1 70/54/1
f 71/56/1 45/42/1 17/17/1
f 78/57/3 124/58/3 121/51/3
f 26/44/1 66/40/1 71/56/1
f 35/59/2 105/60/2 103/61/2
f 15/62/1 60/63/1 72/64/1
f 24/65/1 65/66/1 72/64/1
f 73/67/1 41/68/1 14/69/1
f 1/70/1 54/71/1 73/72/1
f 22/73/1 59/74/1 73/75/1
f 36/76/1 74/77/1 38/78/1
f 9/79/1 35/80/1 74/77/1
f 35/59/1 19/81/1 58/32/1
f 75/82/1 35/80/1 9/79/1
f 41/68/1 75/82/1 33/83/1
f 21/84/1 57/85/1 75/86/1
f 76/87/1 55/88/1 2/89/1
f 38/78/1 76/87/1 29/90/1
f 76/91/2 98/92/2 91/93/2
f 56/26/1 77/94/1 43/24/1
f 20/33/1 52/18/1 77/94/1
f 72/95/4 113/96/4 107/97/4
f 78/98/1 51/99/1 19/81/1
f 21/84/1 53/100/1 78/98/1
f 53/100/1 18/15/1 49/55/1
f 58/32/1 79/101/1 52/18/1
f 51/99/1 79/101/1 58/32/1
f 79/102/2 125/103/2 119/20/2
f 80/13/1 53/100/1 21/84/1
f 42/104/1 80/105/1 59/74/1
f 42/104/1 15/62/1 47/106/1
f 20/107/4 85/108/4 89/109/4
f 30/110/1 81/111/1 65/66/1
f 30/110/1 4/112/1 32/113/1
f 82/114/1 63/9/1 27/41/1
f 75/115/3 114/116/3 105/117/3
f 10/5/1 34/7/1 82/114/1
f 83/118/1 62/6/1 26/44/1
f 64/12/1 83/118/1 67/43/1
f 13/11/1 39/4/1 83/118/1
f 84/1/1 31/119/1 25/47/1
f 68/120/2 96/121/2 100/122/2
f 12/8/1 37/2/1 84/1/1
f 92/123/1 86/124/1 90/125/1
f 85/126/1 91/127/1 98/128/1
f 99/129/1 94/130/1 88/131/1
f 93/132/1 100/133/1 96/134/1
f 64/135/5 94/136/5 99/137/5
f 27/138/3 87/139/3 96/140/3
f 73/141/3 97/142/3 90/143/3
f 56/144/5 91/145/5 85/146/5
f 21/147/5 86/148/5 92/149/5
f 81/150/4 99/151/4 95/152/4
f 59/153/4 92/143/4 97/142/4
f 41/154/2 90/149/2 86/148/2
f 38/155/3 89/156/3 98/157/3
f 63/158/4 93/140/4 87/139/4
f 84/159/5 100/122/5 93/121/5
f 28/160/2 88/161/2 94/162/2
f 114/163/1 110/164/1 103/165/1
f 113/166/1 106/167/1 102/168/1
f 109/169/1 101/170/1 108/171/1
f 111/172/1 116/173/1 112/174/1
f 19/175/5 103/176/5 110/177/5
f 17/178/4 101/179/4 109/180/4
f 26/181/3 104/182/3 112/183/3
f 52/184/3 109/185/3 115/186/3
f 57/187/4 110/188/4 114/189/4
f 18/190/2 102/191/2 106/192/2
f 77/193/2 115/194/2 108/195/2
f 62/6/4 111/196/4 104/197/4
f 46/198/5 106/199/5 113/200/5
f 47/201/3 107/202/3 102/203/3
f 50/204/5 108/205/5 101/206/5
f 82/207/5 116/208/5 111/209/5
f 124/210/1 120/211/1 117/212/1
f 122/213/1 118/214/1 117/212/1
f 118/214/1 123/215/1 119/216/1
f 117/212/1 119/216/1 125/217/1
f 49/50/4 120/51/4 124/58/4
f 70/218/4 122/52/4 120/51/4
f 44/19/5 118/20/5 122/103/5
f 71/219/5 123/21/5 118/20/5
f 5/220/6 6/221/6 7/222/6
f 5/223/5 9/224/5 6/225/5
f 6/226/4 16/227/4 7/228/4
f 15/224/2 5/223/2 8/225/2
f 7/228/3 10/227/3 8/226/3
f 31/119/1 84/1/1 3/3/1
f 83/118/1 39/4/1 62/6/1
f 82/114/1 34/7/1 63/9/1
f 81/229/1 32/10/1 64/12/1
f 53/100/1 80/13/1 18/15/1
f 79/101/1 48/16/1 52/18/1
f 71/219/2 48/19/2 123/21/2
f 77/94/1 50/22/1 43/24/1
f 55/230/1 76/25/1 23/27/1
f 82/231/2 66/28/2 116/30/2
f 38/232/1 74/31/1 20/33/1
f 28/233/3 65/34/3 88/36/3
f 46/53/1 72/37/1 28/39/1
f 71/56/1 66/40/1 45/42/1
f 70/54/1 67/43/1 44/45/1
f 69/49/1 68/46/1 61/48/1
f 50/22/1 69/49/1 16/23/1
f 17/17/1 45/42/1 50/22/1
f 69/49/1 45/42/1 68/46/1
f 79/218/3 51/50/3 125/52/3
f 18/15/1 46/53/1 49/55/1
f 46/53/1 28/39/1 70/54/1
f 48/16/1 71/56/1 17/17/1
f 51/50/3 78/57/3 121/51/3
f 44/45/1 26/44/1 71/56/1
f 19/81/2 35/59/2 103/61/2
f 47/106/1 15/62/1 72/64/1
f 60/63/1 24/65/1 72/64/1
f 40/234/1 73/67/1 14/69/1
f 40/235/1 1/70/1 73/72/1
f 54/236/1 22/73/1 73/75/1
f 11/237/1 36/76/1 38/78/1
f 36/76/1 9/79/1 74/77/1
f 74/31/1 35/59/1 58/32/1
f 33/83/1 75/82/1 9/79/1
f 14/69/1 41/68/1 33/83/1
f 41/238/1 21/84/1 75/86/1
f 29/90/1 76/87/1 2/89/1
f 11/237/1 38/78/1 29/90/1
f 56/239/2 76/91/2 91/93/2
f 23/27/1 56/26/1 43/24/1
f 56/26/1 20/33/1 77/94/1
f 47/240/4 72/95/4 107/97/4
f 57/85/1 78/98/1 19/81/1
f 57/85/1 21/84/1 78/98/1
f 78/98/1 53/100/1 49/55/1
f 20/33/1 58/32/1 52/18/1
f 19/81/1 51/99/1 58/32/1
f 48/19/2 79/102/2 119/20/2
f 59/241/1 80/13/1 21/84/1
f 22/73/1 42/104/1 59/74/1
f 80/105/1 42/104/1 47/106/1
f 38/242/4 20/107/4 89/109/4
f 24/65/1 30/110/1 65/66/1
f 81/111/1 30/110/1 32/113/1
f 66/40/1 82/114/1 27/41/1
f 35/243/3 75/115/3 105/117/3
f 62/6/1 10/5/1 82/114/1
f 67/43/1 83/118/1 26/44/1
f 28/39/1 64/12/1 67/43/1
f 64/12/1 13/11/1 83/118/1
f 68/46/1 84/1/1 25/47/1
f 84/159/2 68/120/2 100/122/2
f 63/9/1 12/8/1 84/1/1
f 97/244/1 92/123/1 90/125/1
f 89/245/1 85/126/1 98/128/1
f 95/246/1 99/129/1 88/131/1
f 87/247/1 93/132/1 96/134/1
f 81/248/5 64/135/5 99/137/5
f 68/158/3 27/138/3 96/140/3
f 41/153/3 73/141/3 90/143/3
f 20/249/5 56/144/5 85/146/5
f 59/154/5 21/147/5 92/149/5
f 65/250/4 81/150/4 95/152/4
f 73/141/4 59/153/4 97/142/4
f 21/147/2 41/154/2 86/148/2
f 76/251/3 38/155/3 98/157/3
f 27/138/4 63/158/4 87/139/4
f 63/120/5 84/159/5 93/121/5
f 64/252/2 28/160/2 94/162/2
f 105/253/1 114/163/1 103/165/1
f 107/254/1 113/166/1 102/168/1
f 115/255/1 109/169/1 108/171/1
f 104/256/1 111/172/1 112/174/1
f 57/257/5 19/175/5 110/177/5
f 52/258/4 17/178/4 109/180/4
f 66/259/3 26/181/3 112/183/3
f 77/260/3 52/184/3 115/186/3
f 75/261/4 57/187/4 114/189/4
f 46/262/2 18/190/2 106/192/2
f 50/263/2 77/193/2 108/195/2
f 26/44/4 62/6/4 104/197/4
f 72/264/5 46/198/5 113/200/5
f 18/265/3 47/201/3 102/203/3
f 17/266/5 50/204/5 101/206/5
f 62/267/5 82/207/5 111/209/5
f 121/268/1 124/210/1 117/212/1
f 120/211/1 122/213/1 117/212/1
f 117/212/1 118/214/1 119/216/1
f 121/268/1 117/212/1 125/217/1
f 78/57/4 49/50/4 124/58/4
f 49/50/4 70/218/4 120/51/4
f 70/102/5 44/19/5 122/103/5
f 44/19/5 71/219/5 118/20/5
f 8/269/6 5/220/6 7/222/6
f 11/270/5 29/271/5 6/225/5
f 2/272/5 6/225/5 29/271/5
f 5/223/5 1/273/5 40/274/5
f 40/274/5 14/275/5 5/223/5
f 33/276/5 9/224/5 5/223/5
f 36/277/5 11/270/5 6/225/5
f 5/223/5 14/275/5 33/276/5
f 36/277/5 6/225/5 9/224/5
f 25/278/4 31/279/4 7/228/4
f 3/280/4 7/228/4 31/279/4
f 6/226/4 2/281/4 55/282/4
f 55/282/4 23/283/4 6/226/4
f 43/284/4 16/227/4 6/226/4
f 61/285/4 25/278/4 7/228/4
f 6/226/4 23/283/4 43/284/4
f 61/285/4 7/228/4 16/227/4
f 4/272/2 30/271/2 8/225/2
f 24/270/2 60/277/2 8/225/2
f 15/224/2 42/276/2 5/223/2
f 22/275/2 54/274/2 5/223/2
f 1/273/2 5/223/2 54/274/2
f 8/225/2 30/271/2 24/270/2
f 60/277/2 15/224/2 8/225/2
f 22/275/2 5/223/2 42/276/2
f 13/283/3 32/282/3 8/226/3
f 4/281/3 8/226/3 32/282/3
f 7/228/3 3/280/3 37/279/3
f 12/278/3 34/285/3 7/228/3
f 7/228/3 37/279/3 12/278/3
f 13/283/3 8/226/3 39/284/3
f 10/227/3 39/284/3 8/226/3
f 7/228/3 34/285/3 10/227/3
